<svg xmlns="http://www.w3.org/2000/svg" viewBox="0 0 616.58 262.55"><defs><style>.cls-1{fill:#fff;}</style></defs><title>logo-bid-bw</title><g id="Capa_2" data-name="Capa 2"><g id="Layer_1" data-name="Layer 1"><path class="cls-1" d="M253,200h11.25c2.87,0,5.13.79,6.56,2.22a5.62,5.62,0,0,1,1.69,4.16v.07a6,6,0,0,1-3.59,5.59c2.94,1,5,2.69,5,6.09v.08c0,4.48-3.69,6.88-9.28,6.88H253Zm10.36,10.57c2.83,0,4.73-1.11,4.73-3.4v-.07c0-2-1.58-3.2-4.41-3.2h-6.35v6.67Zm1.29,10.61c3,0,4.84-1.18,4.84-3.44v-.07c0-2.12-1.69-3.37-5.17-3.37h-7v6.88Z"/><path class="cls-1" d="M288.48,225.11v-2.33a7.65,7.65,0,0,1-6.13,2.72c-3.58,0-6.74-2-6.74-5.84v-.07c0-4.2,3.26-6.2,7.67-6.2a15.73,15.73,0,0,1,5.23.79v-.36c0-2.62-1.64-4-4.65-4a13.14,13.14,0,0,0-5.42,1.18l-1.18-3.48a16.26,16.26,0,0,1,7.21-1.57c5.59,0,8.31,2.94,8.31,8v11.22Zm.11-7.92a12.41,12.41,0,0,0-4.34-.76c-2.72,0-4.34,1.11-4.34,2.94v.08c0,1.79,1.62,2.79,3.66,2.79,2.87,0,5-1.61,5-4Z"/><path class="cls-1" d="M296.51,206.18h4.34v2.94a6.81,6.81,0,0,1,5.91-3.33c4.27,0,6.74,2.87,6.74,7.27v12.05h-4.34V214.36c0-2.94-1.47-4.63-4.05-4.63s-4.26,1.76-4.26,4.7v10.68h-4.34Z"/><path class="cls-1" d="M316.26,215.75v-.07a9.76,9.76,0,0,1,9.82-9.89,9.45,9.45,0,0,1,7.56,3.26L331,212a6.4,6.4,0,0,0-4.91-2.36c-3.16,0-5.45,2.72-5.45,6v.07c0,3.37,2.33,6.09,5.66,6.09a6.65,6.65,0,0,0,4.91-2.36l2.62,2.58a9.57,9.57,0,0,1-7.74,3.55A9.67,9.67,0,0,1,316.26,215.75Z"/><path class="cls-1" d="M334.76,215.75v-.07a10.09,10.09,0,0,1,20.18-.07v.07a9.9,9.9,0,0,1-10.15,9.86A9.78,9.78,0,0,1,334.76,215.75Zm15.84,0v-.07a5.85,5.85,0,0,0-5.81-6.09c-3.47,0-5.7,2.72-5.7,6v.07a5.87,5.87,0,0,0,5.78,6.09A5.7,5.7,0,0,0,350.6,215.75Z"/><path class="cls-1" d="M368,200h4.41v25.09H368Z"/><path class="cls-1" d="M377.16,206.18h4.34v2.94a6.81,6.81,0,0,1,5.91-3.33c4.27,0,6.74,2.87,6.74,7.27v12.05h-4.33V214.36c0-2.94-1.47-4.63-4.06-4.63s-4.26,1.76-4.26,4.7v10.68h-4.34Z"/><path class="cls-1" d="M398.85,219.88v-10h-2.4v-3.73h2.4V201h4.34v5.19h5.09v3.73h-5.09v9.28a2.07,2.07,0,0,0,2.33,2.37,5.83,5.83,0,0,0,2.68-.65v3.55a7.55,7.55,0,0,1-3.9,1C401.11,225.43,398.85,224,398.85,219.88Z"/><path class="cls-1" d="M409.64,215.72v-.07c0-5.42,3.83-9.86,9.25-9.86,6,0,9.07,4.73,9.07,10.18,0,.39,0,.79-.08,1.22H414a5.28,5.28,0,0,0,5.45,4.8,6.88,6.88,0,0,0,5.12-2.26l2.54,2.26a9.56,9.56,0,0,1-7.74,3.55A9.44,9.44,0,0,1,409.64,215.72Zm14-1.4c-.28-2.8-1.93-5-4.8-5-2.65,0-4.51,2-4.91,5Z"/><path class="cls-1" d="M430.9,206.18h4.33v4.27c1.19-2.83,3.37-4.77,6.71-4.63v4.59h-.26c-3.79,0-6.45,2.47-6.45,7.49v7.21H430.9Z"/><path class="cls-1" d="M455,225.11v-2.33a7.65,7.65,0,0,1-6.13,2.72c-3.59,0-6.74-2-6.74-5.84v-.07c0-4.2,3.26-6.2,7.67-6.2a15.82,15.82,0,0,1,5.23.79v-.36c0-2.62-1.64-4-4.66-4a13.13,13.13,0,0,0-5.41,1.18l-1.18-3.48a16.25,16.25,0,0,1,7.2-1.57c5.59,0,8.32,2.94,8.32,8v11.22Zm.1-7.92a12.35,12.35,0,0,0-4.33-.76c-2.73,0-4.34,1.11-4.34,2.94v.08c0,1.79,1.61,2.79,3.66,2.79,2.86,0,5-1.61,5-4Z"/><path class="cls-1" d="M463,206.18h4.34v2.87a6.77,6.77,0,0,1,5.77-3.26,6,6,0,0,1,5.62,3.33,7.76,7.76,0,0,1,6.42-3.33c4.12,0,6.63,2.62,6.63,7.24v12.08h-4.34V214.36c0-3-1.4-4.63-3.83-4.63s-4,1.65-4,4.7v10.68H475.2V214.32c0-2.94-1.43-4.59-3.83-4.59s-4.05,1.79-4.05,4.73v10.65H463Z"/><path class="cls-1" d="M494.56,215.72v-.07c0-5.42,3.83-9.86,9.25-9.86,6,0,9.06,4.73,9.06,10.18,0,.39,0,.79-.07,1.22H498.9a5.27,5.27,0,0,0,5.44,4.8,6.88,6.88,0,0,0,5.13-2.26L512,222a9.56,9.56,0,0,1-7.74,3.55A9.44,9.44,0,0,1,494.56,215.72Zm14-1.4c-.28-2.8-1.93-5-4.8-5-2.65,0-4.52,2-4.91,5Z"/><path class="cls-1" d="M515.82,206.18h4.33v4.27c1.19-2.83,3.37-4.77,6.7-4.63v4.59h-.25c-3.8,0-6.45,2.47-6.45,7.49v7.21h-4.33Z"/><path class="cls-1" d="M529.26,199.16h4.66v4.12h-4.66Zm.18,7h4.33v18.93h-4.33Z"/><path class="cls-1" d="M537,215.75v-.07a9.76,9.76,0,0,1,9.82-9.89,9.48,9.48,0,0,1,7.57,3.26l-2.69,2.9a6.39,6.39,0,0,0-4.91-2.36c-3.16,0-5.45,2.72-5.45,6v.07c0,3.37,2.33,6.09,5.66,6.09a6.63,6.63,0,0,0,4.91-2.36l2.62,2.58a9.57,9.57,0,0,1-7.74,3.55A9.67,9.67,0,0,1,537,215.75Z"/><path class="cls-1" d="M568.62,225.11v-2.33a7.66,7.66,0,0,1-6.13,2.72c-3.59,0-6.74-2-6.74-5.84v-.07c0-4.2,3.26-6.2,7.67-6.2a15.82,15.82,0,0,1,5.23.79v-.36c0-2.62-1.65-4-4.66-4a13.13,13.13,0,0,0-5.41,1.18l-1.18-3.48a16.25,16.25,0,0,1,7.2-1.57c5.59,0,8.32,2.94,8.32,8v11.22Zm.1-7.92a12.35,12.35,0,0,0-4.33-.76c-2.73,0-4.34,1.11-4.34,2.94v.08c0,1.79,1.61,2.79,3.65,2.79,2.87,0,5-1.61,5-4Z"/><path class="cls-1" d="M380.28,262.09v-2.33a7.65,7.65,0,0,1-6.13,2.72c-3.58,0-6.74-2-6.74-5.84v-.07c0-4.2,3.27-6.2,7.67-6.2a15.84,15.84,0,0,1,5.24.79v-.36c0-2.62-1.65-4.05-4.66-4.05a13.09,13.09,0,0,0-5.41,1.18l-1.19-3.48a16.26,16.26,0,0,1,7.21-1.57c5.59,0,8.31,2.94,8.31,8v11.22Zm.11-7.92a12.37,12.37,0,0,0-4.34-.76c-2.72,0-4.33,1.12-4.33,2.94v.08c0,1.79,1.61,2.79,3.65,2.79,2.87,0,5-1.61,5-4Z"/><path class="cls-1" d="M576.65,206.18H581v2.94a6.82,6.82,0,0,1,5.92-3.33c4.26,0,6.74,2.87,6.74,7.27v12.05H589.3V214.36c0-2.94-1.47-4.63-4-4.63s-4.27,1.76-4.27,4.7v10.68h-4.33Z"/><path class="cls-1" d="M596.4,215.75v-.07a10.09,10.09,0,0,1,20.18-.07v.07a9.9,9.9,0,0,1-10.15,9.86A9.78,9.78,0,0,1,596.4,215.75Zm15.84,0v-.07a5.85,5.85,0,0,0-5.81-6.09c-3.47,0-5.7,2.72-5.7,6v.07a5.87,5.87,0,0,0,5.78,6.09A5.7,5.7,0,0,0,612.24,215.75Z"/><path class="cls-1" d="M251.49,252.7v-.07c0-6.28,4.26-9.83,8.78-9.83a7.82,7.82,0,0,1,6.45,3.34V236h4.34v26.16h-4.34V259a7.58,7.58,0,0,1-6.45,3.55C255.82,262.52,251.49,259,251.49,252.7Zm15.3,0v-.07c0-3.66-2.58-6.06-5.48-6.06s-5.45,2.29-5.45,6.06v.07c0,3.65,2.51,6.05,5.45,6.05S266.79,256.32,266.79,252.7Z"/><path class="cls-1" d="M274,252.73v-.07c0-5.41,3.83-9.86,9.25-9.86,6,0,9.07,4.74,9.07,10.18,0,.4,0,.79-.08,1.22h-13.9a5.28,5.28,0,0,0,5.44,4.81,6.88,6.88,0,0,0,5.13-2.26l2.54,2.26a9.56,9.56,0,0,1-7.74,3.54A9.44,9.44,0,0,1,274,252.73Zm14-1.39c-.28-2.8-1.93-5-4.8-5-2.65,0-4.52,2.05-4.91,5Z"/><path class="cls-1" d="M305.08,237h9.35c7.89,0,13.34,5.42,13.34,12.48v.07c0,7.06-5.45,12.54-13.34,12.54h-9.35Zm9.35,21.08c5.27,0,8.71-3.55,8.71-8.46v-.07c0-4.91-3.44-8.53-8.71-8.53h-4.94v17.06Z"/><path class="cls-1" d="M330.13,252.73v-.07c0-5.41,3.84-9.86,9.25-9.86,6,0,9.07,4.74,9.07,10.18,0,.4,0,.79-.07,1.22H334.47a5.28,5.28,0,0,0,5.45,4.81,6.86,6.86,0,0,0,5.12-2.26l2.55,2.26a9.57,9.57,0,0,1-7.74,3.54A9.44,9.44,0,0,1,330.13,252.73Zm14-1.39c-.29-2.8-1.94-5-4.8-5-2.66,0-4.52,2.05-4.92,5Z"/><path class="cls-1" d="M349.85,259.65l1.93-2.94A10.66,10.66,0,0,0,358,259c1.86,0,2.94-.79,2.94-2v-.07c0-1.47-2-2-4.24-2.66-2.79-.78-5.91-1.93-5.91-5.55v-.07c0-3.59,3-5.77,6.74-5.77a13,13,0,0,1,7,2.15l-1.72,3.08a11,11,0,0,0-5.34-1.79c-1.68,0-2.65.79-2.65,1.9v.07c0,1.36,2,1.93,4.26,2.65,2.76.86,5.88,2.12,5.88,5.52v.07c0,4-3.08,6-7,6A13.3,13.3,0,0,1,349.85,259.65Z"/><path class="cls-1" d="M346.23,95.58C356.15,88.85,361,79.7,361,67.72v-.38c0-9.51-3.13-17.26-9.58-23.7-8-8-20.3-12.19-35.65-12.19H253v135h64.29c32.42,0,51-13.83,51-37.94v-.37C368.27,112.58,361.44,102.43,346.23,95.58Zm-29,41.48H285.1V112.39h31.21c12.78,0,19.26,4.08,19.26,12.14v.38C335.57,133,329.41,137.06,317.25,137.06ZM285.1,84.35V60.8h26.36c7.67,0,16.82,2,16.82,11.4v.37c0,7.82-6.29,11.78-18.7,11.78Z"/><path class="cls-1" d="M476.38,31.45H423.29l0,135h53.06c20.19,0,38.52-6.91,51.6-19.47,12.89-12.37,20-29.42,20-48v-.37C548,59.67,517.85,31.45,476.38,31.45Zm37.38,67.47v.38c0,22.14-15,37-37.38,37h-20.2V61.55h20.2C498.73,61.55,513.76,76.57,513.76,98.92Z"/><path class="cls-1" d="M393.8,31.24a16.45,16.45,0,0,1,16.45,16.44V166.43H377.36V31.23Z"/><path class="cls-1" d="M115.61,119.28c-17.35,28.09,38.38,28.51,12.59,81-.75.13-1.5.27-2.27.38A110,110,0,0,1,19.26,29.71c-2.8,63.42,112.55,63.35,96.35,89.57m24.59,78.3c5.93-11.05,18.86-27.16,46.51-59.64,41.34-48.57-81.17-32.26-102.16-69C67.26,38.62,131.61,16.85,170.49,0A110,110,0,0,1,140.2,197.58ZM103.91,58.87C99.78,61,107.16,70.62,126,71.13S120.58,50.11,103.91,58.87Zm41.67,10.25c-14.15-4.59-4.84,6.74,1.89,7.49S155.61,72.37,145.58,69.12ZM160.35,80.2c-4.71-.19-5.55,2.65,1.52,4.15C171.85,86.45,165.06,80.4,160.35,80.2Z"/><path class="cls-1" d="M388.28,242.14h4.34v4.26c1.18-2.83,3.37-4.77,6.7-4.62v4.58h-.25c-3.8,0-6.45,2.48-6.45,7.5v7.2h-4.34Z"/><path class="cls-1" d="M402.76,242.14h4.33v4.26c1.19-2.83,3.37-4.77,6.71-4.62v4.58h-.25c-3.8,0-6.46,2.48-6.46,7.5v7.2h-4.33Z"/><path class="cls-1" d="M413.56,251.77v-.07a10.09,10.09,0,0,1,20.18-.07v.07a9.89,9.89,0,0,1-10.14,9.85A9.79,9.79,0,0,1,413.56,251.77Zm15.85,0v-.07a5.86,5.86,0,0,0-5.81-6.1c-3.48,0-5.7,2.73-5.7,6v.07a5.86,5.86,0,0,0,5.77,6.09A5.71,5.71,0,0,0,429.41,251.77Z"/><path class="cls-1" d="M435.25,235.76h4.33v26.17h-4.33Z"/><path class="cls-1" d="M444,235.76h4.34v26.17H444Z"/><path class="cls-1" d="M450.16,251.75v-.07a10.09,10.09,0,0,1,20.18-.07v.07a9.9,9.9,0,0,1-10.15,9.86A9.78,9.78,0,0,1,450.16,251.75Zm15.84,0v-.07a5.85,5.85,0,0,0-5.81-6.09c-3.47,0-5.69,2.72-5.69,6v.07a5.86,5.86,0,0,0,5.77,6.09A5.7,5.7,0,0,0,466,251.75Z"/></g></g></svg>