<svg xmlns="http://www.w3.org/2000/svg" viewBox="0 0 237 237"><defs><style>.cls-1{fill:#fff;}</style></defs><title>play-video</title><g id="Capa_2" data-name="Capa 2"><g id="Capa_1-2" data-name="Capa 1"><path class="cls-1" d="M118.5,0A118.43,118.43,0,0,0,31.29,198.63l7.06-7.06A108.46,108.46,0,0,1,191.57,38.35l7.06-7.06A118,118,0,0,0,118.5,0Zm87.21,38.37-7.06,7.06A108.46,108.46,0,0,1,45.43,198.65l-7.06,7.06A118.43,118.43,0,0,0,205.71,38.37Z"/><path class="cls-1" d="M175,113.1,94.23,66.46a6.24,6.24,0,0,0-9.36,5.4v93.28a6.24,6.24,0,0,0,9.36,5.4L175,123.9A6.23,6.23,0,0,0,175,113.1Z"/></g></g></svg>